# This file uses centimeters as units for non-parametric coordinates.

mtllib mallet.mtl
g default
v -1.579254 4.023541 -0.638629
v -1.579254 4.210733 -0.543251
v -1.579254 4.359289 -0.394695
v -1.579254 4.454668 -0.207503
v -1.579254 4.487533 0.000000
v -1.579254 4.454668 0.207503
v -1.579254 4.359289 0.394695
v -1.579254 4.210732 0.543250
v -1.579254 4.023541 0.638630
v -1.579254 3.816038 0.671495
v -1.579254 3.608534 0.638630
v -1.579254 3.421342 0.543251
v -1.579254 3.272787 0.394694
v -1.579254 3.177408 0.207503
v -1.579254 3.144543 0.000000
v -1.579254 3.177408 -0.207503
v -1.579254 3.272787 -0.394695
v -1.579254 3.421343 -0.543250
v -1.579254 3.608534 -0.638629
v -1.579254 3.816038 -0.671495
v -1.099337 4.125055 -0.951057
v -1.099337 4.403823 -0.809018
v -1.099337 4.625055 -0.587786
v -1.099337 4.767095 -0.309017
v -1.099337 4.816038 -0.000000
v -1.099337 4.767095 0.309017
v -1.099337 4.625055 0.587785
v -1.099337 4.403823 0.809017
v -1.099337 4.125055 0.951057
v -1.099337 3.816038 1.000000
v -1.099337 3.507020 0.951057
v -1.099337 3.228252 0.809017
v -1.099337 3.007020 0.587785
v -1.099337 2.864981 0.309017
v -1.099337 2.816038 0.000000
v -1.099337 2.864981 -0.309017
v -1.099337 3.007020 -0.587785
v -1.099337 3.228252 -0.809017
v -1.099337 3.507021 -0.951057
v -1.099337 3.816038 -1.000000
v 1.099338 4.125055 -0.951057
v 1.099338 4.403823 -0.809018
v 1.099338 4.625055 -0.587786
v 1.099338 4.767095 -0.309017
v 1.099338 4.816038 0.000000
v 1.099338 4.767095 0.309017
v 1.099338 4.625055 0.587785
v 1.099338 4.403823 0.809017
v 1.099338 4.125055 0.951057
v 1.099338 3.816038 1.000000
v 1.099338 3.507020 0.951057
v 1.099338 3.228252 0.809017
v 1.099338 3.007020 0.587785
v 1.099338 2.864981 0.309017
v 1.099338 2.816038 0.000000
v 1.099338 2.864981 -0.309017
v 1.099338 3.007020 -0.587785
v 1.099338 3.228252 -0.809017
v 1.099338 3.507021 -0.951057
v 1.099338 3.816038 -1.000000
v 1.579254 4.023541 -0.638629
v 1.579254 4.210733 -0.543251
v 1.579254 4.359289 -0.394695
v 1.579254 4.454668 -0.207503
v 1.579254 4.487533 0.000000
v 1.579254 4.454668 0.207503
v 1.579254 4.359289 0.394695
v 1.579254 4.210733 0.543250
v 1.579254 4.023541 0.638630
v 1.579254 3.816038 0.671495
v 1.579254 3.608534 0.638630
v 1.579254 3.421343 0.543250
v 1.579254 3.272787 0.394694
v 1.579254 3.177408 0.207503
v 1.579254 3.144543 0.000000
v 1.579254 3.177408 -0.207503
v 1.579254 3.272787 -0.394695
v 1.579254 3.421343 -0.543250
v 1.579254 3.608534 -0.638629
v 1.579254 3.816038 -0.671495
v -1.579254 3.816038 -0.000000
v 1.579254 3.816038 0.000000
v 0.190211 -0.853382 -0.061803
v 0.161804 -0.853382 -0.117557
v 0.117557 -0.853382 -0.161803
v 0.061803 -0.853382 -0.190211
v 0.000000 -0.853382 -0.200000
v -0.061803 -0.853382 -0.190211
v -0.117557 -0.853382 -0.161803
v -0.161803 -0.853382 -0.117557
v -0.190211 -0.853382 -0.061803
v -0.200000 -0.853382 0.000000
v -0.190211 -0.853382 0.061803
v -0.161803 -0.853382 0.117557
v -0.117557 -0.853382 0.161803
v -0.061803 -0.853382 0.190211
v -0.000000 -0.853382 0.200000
v 0.061803 -0.853382 0.190211
v 0.117557 -0.853382 0.161803
v 0.161803 -0.853382 0.117557
v 0.190211 -0.853382 0.061803
v 0.200000 -0.853382 0.000000
v 0.190211 3.146617 -0.061803
v 0.161804 3.146617 -0.117557
v 0.117557 3.146617 -0.161803
v 0.061803 3.146617 -0.190211
v 0.000000 3.146617 -0.200000
v -0.061803 3.146617 -0.190211
v -0.117557 3.146617 -0.161803
v -0.161803 3.146617 -0.117557
v -0.190211 3.146617 -0.061803
v -0.200000 3.146617 0.000000
v -0.190211 3.146617 0.061803
v -0.161803 3.146617 0.117557
v -0.117557 3.146617 0.161803
v -0.061803 3.146617 0.190211
v -0.000000 3.146617 0.200000
v 0.061803 3.146617 0.190211
v 0.117557 3.146617 0.161803
v 0.161803 3.146617 0.117557
v 0.190211 3.146617 0.061803
v 0.200000 3.146617 0.000000
v 0.000000 -0.853382 0.000000
v 0.000000 3.146617 0.000000
vt 0.648603 0.107966
vt 0.626409 0.064408
vt 0.591842 0.029841
vt 0.548284 0.007647
vt 0.500000 -0.000000
vt 0.451716 0.007647
vt 0.408159 0.029841
vt 0.373591 0.064409
vt 0.351397 0.107966
vt 0.343750 0.156250
vt 0.351397 0.204534
vt 0.373591 0.248091
vt 0.408159 0.282659
vt 0.451716 0.304853
vt 0.500000 0.312500
vt 0.548284 0.304853
vt 0.591841 0.282659
vt 0.626409 0.248091
vt 0.648603 0.204534
vt 0.656250 0.156250
vt 0.375000 0.312500
vt 0.387500 0.312500
vt 0.400000 0.312500
vt 0.412500 0.312500
vt 0.425000 0.312500
vt 0.437500 0.312500
vt 0.450000 0.312500
vt 0.462500 0.312500
vt 0.475000 0.312500
vt 0.487500 0.312500
vt 0.500000 0.312500
vt 0.512500 0.312500
vt 0.525000 0.312500
vt 0.537500 0.312500
vt 0.550000 0.312500
vt 0.562500 0.312500
vt 0.575000 0.312500
vt 0.587500 0.312500
vt 0.600000 0.312500
vt 0.612500 0.312500
vt 0.625000 0.312500
vt 0.375000 0.437813
vt 0.387500 0.437813
vt 0.400000 0.437813
vt 0.412500 0.437813
vt 0.425000 0.437813
vt 0.437500 0.437813
vt 0.450000 0.437813
vt 0.462500 0.437813
vt 0.475000 0.437813
vt 0.487500 0.437813
vt 0.500000 0.437813
vt 0.512500 0.437813
vt 0.525000 0.437813
vt 0.537500 0.437813
vt 0.550000 0.437813
vt 0.562500 0.437813
vt 0.575000 0.437813
vt 0.587500 0.437813
vt 0.600000 0.437813
vt 0.612500 0.437813
vt 0.625000 0.437813
vt 0.375000 0.563127
vt 0.387500 0.563127
vt 0.400000 0.563127
vt 0.412500 0.563127
vt 0.425000 0.563127
vt 0.437500 0.563127
vt 0.450000 0.563127
vt 0.462500 0.563127
vt 0.475000 0.563127
vt 0.487500 0.563127
vt 0.500000 0.563127
vt 0.512500 0.563127
vt 0.525000 0.563127
vt 0.537500 0.563127
vt 0.550000 0.563127
vt 0.562500 0.563127
vt 0.575000 0.563127
vt 0.587500 0.563127
vt 0.600000 0.563127
vt 0.612500 0.563127
vt 0.625000 0.563127
vt 0.375000 0.688440
vt 0.387500 0.688440
vt 0.400000 0.688440
vt 0.412500 0.688440
vt 0.425000 0.688440
vt 0.437500 0.688440
vt 0.450000 0.688440
vt 0.462500 0.688440
vt 0.475000 0.688440
vt 0.487500 0.688440
vt 0.500000 0.688440
vt 0.512500 0.688440
vt 0.525000 0.688440
vt 0.537500 0.688440
vt 0.550000 0.688440
vt 0.562500 0.688440
vt 0.575000 0.688440
vt 0.587500 0.688440
vt 0.600000 0.688440
vt 0.612500 0.688440
vt 0.625000 0.688440
vt 0.648603 0.795466
vt 0.626409 0.751908
vt 0.591842 0.717341
vt 0.548284 0.695147
vt 0.500000 0.687500
vt 0.451716 0.695147
vt 0.408159 0.717341
vt 0.373591 0.751909
vt 0.351397 0.795466
vt 0.343750 0.843750
vt 0.351397 0.892034
vt 0.373591 0.935591
vt 0.408159 0.970159
vt 0.451716 0.992353
vt 0.500000 1.000000
vt 0.548284 0.992353
vt 0.591841 0.970159
vt 0.626409 0.935591
vt 0.648603 0.892034
vt 0.656250 0.843750
vt 0.500000 0.150000
vt 0.500000 0.837500
vt 1.008417 0.269791
vt 1.013056 -0.060744
vt 0.013155 -0.074778
vt 0.008515 0.255757
vt 1.014459 -0.160734
vt 0.014558 -0.174769
vt 1.015863 -0.260725
vt 0.015962 -0.274759
vt 1.017266 -0.360714
vt 0.017365 -0.374749
vt 0.989198 1.639089
vt 0.990601 1.539098
vt -0.009300 1.525064
vt -0.010704 1.625054
vt 0.992005 1.439108
vt -0.007897 1.425074
vt 0.993408 1.339118
vt -0.006494 1.325084
vt 0.998047 1.008583
vt -0.001854 0.994549
vt 0.998912 0.947017
vt -0.000990 0.932982
vt 0.999776 0.885451
vt -0.000126 0.871417
vt 1.000640 0.823885
vt 0.000738 0.809851
vt 1.001504 0.762319
vt 0.001602 0.748285
vt 1.002368 0.700753
vt 0.002466 0.686719
vt 1.003232 0.639187
vt 0.003331 0.625153
vt 1.004096 0.577621
vt 0.004195 0.563587
vt 1.004960 0.516055
vt 0.005059 0.502021
vt 1.005824 0.454489
vt 0.005923 0.440455
vt 1.006689 0.392923
vt 0.006787 0.378889
vt 1.007552 0.331357
vt 0.007651 0.317323
vt 1.005002 0.513080
vt 1.018670 -0.460705
vt 1.020073 -0.560695
vt 0.005100 0.499045
vt 0.018768 -0.474739
vt 0.020171 -0.574729
vt 0.021575 -0.674719
vn -0.564850 0.254998 -0.784806
vn -0.564850 0.485036 -0.667596
vn -0.100026 0.584837 -0.804960
vn -0.100026 0.307466 -0.946287
vn -0.564849 0.667596 -0.485037
vn -0.100026 0.804960 -0.584837
vn -0.564849 0.784807 -0.254998
vn -0.100026 0.946287 -0.307467
vn -0.564849 0.825194 0.000001
vn -0.100026 0.994985 0.000000
vn -0.564849 0.784806 0.254999
vn -0.100026 0.946287 0.307468
vn -0.564849 0.667596 0.485037
vn -0.100026 0.804959 0.584838
vn -0.564850 0.485037 0.667596
vn -0.100026 0.584837 0.804960
vn -0.564849 0.254999 0.784806
vn -0.100026 0.307467 0.946287
vn -0.564849 0.000000 0.825194
vn -0.100026 0.000000 0.994985
vn -0.564849 -0.254999 0.784806
vn -0.100026 -0.307467 0.946287
vn -0.564849 -0.485037 0.667596
vn -0.100026 -0.584838 0.804960
vn -0.564849 -0.667596 0.485037
vn -0.100026 -0.804960 0.584838
vn -0.564850 -0.784806 0.254998
vn -0.100026 -0.946287 0.307467
vn -0.564850 -0.825194 -0.000000
vn -0.100026 -0.994985 -0.000001
vn -0.564849 -0.784806 -0.254998
vn -0.100026 -0.946287 -0.307467
vn -0.564849 -0.667596 -0.485037
vn -0.100026 -0.804960 -0.584837
vn -0.564850 -0.485037 -0.667596
vn -0.100026 -0.584837 -0.804960
vn -0.564849 -0.254999 -0.784806
vn -0.100026 -0.307467 -0.946287
vn -0.564849 -0.000000 -0.825194
vn -0.100026 -0.000001 -0.994985
vn 0.100026 0.584837 -0.804960
vn 0.100026 0.307466 -0.946287
vn 0.100026 0.804960 -0.584837
vn 0.100026 0.946287 -0.307467
vn 0.100026 0.994985 0.000000
vn 0.100026 0.946287 0.307468
vn 0.100026 0.804959 0.584838
vn 0.100026 0.584837 0.804960
vn 0.100026 0.307467 0.946287
vn 0.100026 0.000000 0.994985
vn 0.100026 -0.307467 0.946287
vn 0.100026 -0.584838 0.804960
vn 0.100026 -0.804959 0.584838
vn 0.100026 -0.946287 0.307467
vn 0.100026 -0.994985 -0.000001
vn 0.100026 -0.946287 -0.307467
vn 0.100026 -0.804960 -0.584837
vn 0.100026 -0.584837 -0.804960
vn 0.100026 -0.307467 -0.946287
vn 0.100026 -0.000001 -0.994985
vn 0.564850 0.485036 -0.667596
vn 0.564851 0.254998 -0.784806
vn 0.564850 0.667596 -0.485037
vn 0.564850 0.784806 -0.254998
vn 0.564850 0.825194 0.000001
vn 0.564850 0.784806 0.254999
vn 0.564850 0.667596 0.485037
vn 0.564850 0.485037 0.667596
vn 0.564850 0.255000 0.784805
vn 0.564850 0.000000 0.825194
vn 0.564850 -0.254999 0.784806
vn 0.564850 -0.485037 0.667595
vn 0.564850 -0.667596 0.485037
vn 0.564850 -0.784806 0.254998
vn 0.564850 -0.825194 -0.000000
vn 0.564850 -0.784806 -0.254998
vn 0.564850 -0.667595 -0.485037
vn 0.564850 -0.485037 -0.667596
vn 0.564850 -0.254999 -0.784806
vn 0.564850 -0.000001 -0.825194
vn -1.000000 0.000000 0.000000
vn -1.000000 0.000000 0.000000
vn -1.000000 0.000000 0.000000
vn -1.000000 -0.000000 0.000000
vn -1.000000 -0.000000 0.000000
vn -1.000000 0.000000 0.000000
vn -1.000000 0.000000 0.000000
vn -1.000000 0.000000 0.000000
vn -1.000000 -0.000000 0.000000
vn -1.000000 0.000000 0.000000
vn -1.000000 0.000000 0.000000
vn -1.000000 0.000000 0.000000
vn -1.000000 0.000000 0.000000
vn -1.000000 0.000000 0.000000
vn -1.000000 0.000000 0.000000
vn -1.000000 0.000000 0.000000
vn -1.000000 0.000000 0.000000
vn -1.000000 0.000000 0.000000
vn -1.000000 0.000000 0.000000
vn -1.000000 0.000000 0.000000
vn -1.000000 0.000000 0.000000
vn 1.000000 0.000000 0.000000
vn 1.000000 0.000000 0.000000
vn 1.000000 -0.000000 0.000000
vn 1.000000 0.000000 0.000000
vn 1.000000 -0.000000 0.000000
vn 1.000000 -0.000000 0.000000
vn 1.000000 0.000000 0.000000
vn 1.000000 -0.000000 0.000000
vn 1.000000 -0.000000 0.000000
vn 1.000000 0.000000 0.000000
vn 1.000000 0.000000 0.000000
vn 1.000000 0.000000 0.000000
vn 1.000000 0.000000 0.000000
vn 1.000000 0.000000 0.000000
vn 1.000000 0.000000 0.000000
vn 1.000000 -0.000000 0.000000
vn 1.000000 0.000000 0.000000
vn 1.000000 0.000000 0.000000
vn 1.000000 0.000000 0.000000
vn 1.000000 -0.000000 0.000000
vn 1.000000 -0.000001 0.000000
vn 0.951057 0.000000 -0.309016
vn 0.809017 0.000000 -0.587785
vn 0.809017 0.000000 -0.587785
vn 0.951057 0.000000 -0.309016
vn 0.587785 0.000000 -0.809017
vn 0.587785 0.000000 -0.809017
vn 0.309017 0.000000 -0.951057
vn 0.309017 0.000000 -0.951057
vn 0.000000 0.000000 -1.000000
vn 0.000000 0.000000 -1.000000
vn -0.309017 0.000000 -0.951057
vn -0.309017 0.000000 -0.951057
vn -0.587786 0.000000 -0.809017
vn -0.587786 0.000000 -0.809017
vn -0.809017 0.000000 -0.587785
vn -0.809017 0.000000 -0.587785
vn -0.951057 0.000000 -0.309017
vn -0.951057 0.000000 -0.309017
vn -1.000000 0.000000 0.000000
vn -1.000000 0.000000 0.000000
vn -0.951057 0.000000 0.309017
vn -0.951057 0.000000 0.309017
vn -0.809017 0.000000 0.587785
vn -0.809017 0.000000 0.587785
vn -0.587785 0.000000 0.809017
vn -0.587785 0.000000 0.809017
vn -0.309017 0.000000 0.951057
vn -0.309017 0.000000 0.951057
vn 0.000000 0.000000 1.000000
vn 0.000000 0.000000 1.000000
vn 0.309017 0.000000 0.951056
vn 0.309017 0.000000 0.951056
vn 0.587785 0.000000 0.809017
vn 0.587785 0.000000 0.809017
vn 0.809017 0.000000 0.587785
vn 0.809017 0.000000 0.587785
vn 0.951057 0.000000 0.309017
vn 0.951057 0.000000 0.309017
vn 1.000000 0.000000 0.000001
vn 1.000000 0.000000 0.000001
vn 0.000000 -1.000000 0.000000
vn 0.000000 -1.000000 0.000000
vn 0.000000 -1.000000 -0.000000
vn 0.000000 -1.000000 0.000000
vn 0.000000 -1.000000 0.000000
vn 0.000000 -1.000000 0.000000
vn 0.000000 -1.000000 0.000001
vn 0.000000 -1.000000 0.000001
vn 0.000000 -1.000000 -0.000001
vn 0.000000 -1.000000 -0.000000
vn 0.000000 -1.000000 0.000000
vn 0.000000 -1.000000 -0.000001
vn 0.000000 -1.000000 0.000001
vn 0.000000 -1.000000 0.000001
vn 0.000000 -1.000000 0.000000
vn 0.000000 -1.000000 -0.000000
vn 0.000000 -1.000000 -0.000000
vn 0.000000 -1.000000 0.000000
vn 0.000000 -1.000000 0.000000
vn 0.000000 -1.000000 0.000000
vn 0.000000 -1.000000 0.000000
vn 0.000000 1.000000 0.000000
vn 0.000000 1.000000 0.000000
vn 0.000000 1.000000 -0.000000
vn 0.000000 1.000000 0.000000
vn 0.000000 1.000000 0.000000
vn 0.000000 1.000000 0.000000
vn 0.000000 1.000000 -0.000001
vn 0.000000 1.000000 -0.000001
vn 0.000000 1.000000 0.000000
vn 0.000000 1.000000 0.000000
vn 0.000000 1.000000 0.000000
vn 0.000000 1.000000 0.000000
vn 0.000000 1.000000 0.000000
vn 0.000000 1.000000 0.000000
vn 0.000000 1.000000 0.000000
vn 0.000000 1.000000 -0.000001
vn 0.000000 1.000000 -0.000001
vn 0.000000 1.000000 -0.000002
vn 0.000000 1.000000 0.000002
vn 0.000000 1.000000 0.000000
vn 0.000000 1.000000 -0.000005
s 1
g pCylinder3
usemtl phong1SG
f 1/21/1 2/22/2 22/43/3 21/42/4
f 2/22/2 3/23/5 23/44/6 22/43/3
f 3/23/5 4/24/7 24/45/8 23/44/6
f 4/24/7 5/25/9 25/46/10 24/45/8
f 5/25/9 6/26/11 26/47/12 25/46/10
f 6/26/11 7/27/13 27/48/14 26/47/12
f 7/27/13 8/28/15 28/49/16 27/48/14
f 8/28/15 9/29/17 29/50/18 28/49/16
f 9/29/17 10/30/19 30/51/20 29/50/18
f 10/30/19 11/31/21 31/52/22 30/51/20
f 11/31/21 12/32/23 32/53/24 31/52/22
f 12/32/23 13/33/25 33/54/26 32/53/24
f 13/33/25 14/34/27 34/55/28 33/54/26
f 14/34/27 15/35/29 35/56/30 34/55/28
f 15/35/29 16/36/31 36/57/32 35/56/30
f 16/36/31 17/37/33 37/58/34 36/57/32
f 17/37/33 18/38/35 38/59/36 37/58/34
f 18/38/35 19/39/37 39/60/38 38/59/36
f 19/39/37 20/40/39 40/61/40 39/60/38
f 20/40/39 1/41/1 21/62/4 40/61/40
f 21/42/4 22/43/3 42/64/41 41/63/42
f 22/43/3 23/44/6 43/65/43 42/64/41
f 23/44/6 24/45/8 44/66/44 43/65/43
f 24/45/8 25/46/10 45/67/45 44/66/44
f 25/46/10 26/47/12 46/68/46 45/67/45
f 26/47/12 27/48/14 47/69/47 46/68/46
f 27/48/14 28/49/16 48/70/48 47/69/47
f 28/49/16 29/50/18 49/71/49 48/70/48
f 29/50/18 30/51/20 50/72/50 49/71/49
f 30/51/20 31/52/22 51/73/51 50/72/50
f 31/52/22 32/53/24 52/74/52 51/73/51
f 32/53/24 33/54/26 53/75/53 52/74/52
f 33/54/26 34/55/28 54/76/54 53/75/53
f 34/55/28 35/56/30 55/77/55 54/76/54
f 35/56/30 36/57/32 56/78/56 55/77/55
f 36/57/32 37/58/34 57/79/57 56/78/56
f 37/58/34 38/59/36 58/80/58 57/79/57
f 38/59/36 39/60/38 59/81/59 58/80/58
f 39/60/38 40/61/40 60/82/60 59/81/59
f 40/61/40 21/62/4 41/83/42 60/82/60
f 41/63/42 42/64/41 62/85/61 61/84/62
f 42/64/41 43/65/43 63/86/63 62/85/61
f 43/65/43 44/66/44 64/87/64 63/86/63
f 44/66/44 45/67/45 65/88/65 64/87/64
f 45/67/45 46/68/46 66/89/66 65/88/65
f 46/68/46 47/69/47 67/90/67 66/89/66
f 47/69/47 48/70/48 68/91/68 67/90/67
f 48/70/48 49/71/49 69/92/69 68/91/68
f 49/71/49 50/72/50 70/93/70 69/92/69
f 50/72/50 51/73/51 71/94/71 70/93/70
f 51/73/51 52/74/52 72/95/72 71/94/71
f 52/74/52 53/75/53 73/96/73 72/95/72
f 53/75/53 54/76/54 74/97/74 73/96/73
f 54/76/54 55/77/55 75/98/75 74/97/74
f 55/77/55 56/78/56 76/99/76 75/98/75
f 56/78/56 57/79/57 77/100/77 76/99/76
f 57/79/57 58/80/58 78/101/78 77/100/77
f 58/80/58 59/81/59 79/102/79 78/101/78
f 59/81/59 60/82/60 80/103/80 79/102/79
f 60/82/60 41/83/42 61/104/62 80/103/80
s 2
f 2/2/81 1/1/82 81/125/83
f 3/3/84 2/2/81 81/125/83
f 4/4/85 3/3/84 81/125/83
f 5/5/86 4/4/85 81/125/83
f 6/6/87 5/5/86 81/125/83
f 7/7/88 6/6/87 81/125/83
f 8/8/89 7/7/88 81/125/83
f 9/9/90 8/8/89 81/125/83
f 10/10/91 9/9/90 81/125/83
f 11/11/92 10/10/91 81/125/83
f 12/12/93 11/11/92 81/125/83
f 13/13/94 12/12/93 81/125/83
f 14/14/95 13/13/94 81/125/83
f 15/15/96 14/14/95 81/125/83
f 16/16/97 15/15/96 81/125/83
f 17/17/98 16/16/97 81/125/83
f 18/18/99 17/17/98 81/125/83
f 19/19/100 18/18/99 81/125/83
f 20/20/101 19/19/100 81/125/83
f 1/1/82 20/20/101 81/125/83
s 3
f 61/123/102 62/122/103 82/126/104
f 62/122/103 63/121/105 82/126/104
f 63/121/105 64/120/106 82/126/104
f 64/120/106 65/119/107 82/126/104
f 65/119/107 66/118/108 82/126/104
f 66/118/108 67/117/109 82/126/104
f 67/117/109 68/116/110 82/126/104
f 68/116/110 69/115/111 82/126/104
f 69/115/111 70/114/112 82/126/104
f 70/114/112 71/113/113 82/126/104
f 71/113/113 72/112/114 82/126/104
f 72/112/114 73/111/115 82/126/104
f 73/111/115 74/110/116 82/126/104
f 74/110/116 75/109/117 82/126/104
f 75/109/117 76/108/118 82/126/104
f 76/108/118 77/107/119 82/126/104
f 77/107/119 78/106/120 82/126/104
f 78/106/120 79/105/121 82/126/104
f 79/105/121 80/124/122 82/126/104
f 80/124/122 61/123/102 82/126/104
s 4
usemtl blinn1SG
f 83/127/123 84/128/124 104/129/125 103/130/126
f 84/128/124 85/131/127 105/132/128 104/129/125
f 85/131/127 86/133/129 106/134/130 105/132/128
f 86/133/129 87/135/131 107/136/132 106/134/130
f 87/137/131 88/138/133 108/139/134 107/140/132
f 88/138/133 89/141/135 109/142/136 108/139/134
f 89/141/135 90/143/137 110/144/138 109/142/136
f 90/143/137 91/145/139 111/146/140 110/144/138
f 91/145/139 92/147/141 112/148/142 111/146/140
f 92/147/141 93/149/143 113/150/144 112/148/142
f 93/149/143 94/151/145 114/152/146 113/150/144
f 94/151/145 95/153/147 115/154/148 114/152/146
f 95/153/147 96/155/149 116/156/150 115/154/148
f 96/155/149 97/157/151 117/158/152 116/156/150
f 97/157/151 98/159/153 118/160/154 117/158/152
f 98/159/153 99/161/155 119/162/156 118/160/154
f 99/161/155 100/163/157 120/164/158 119/162/156
f 100/163/157 101/165/159 121/166/160 120/164/158
f 101/165/159 102/167/161 122/168/162 121/166/160
f 102/167/161 83/127/123 103/130/126 122/168/162
s 5
f 84/128/163 83/127/164 123/169/165
f 85/131/166 84/128/163 123/169/165
f 86/133/167 85/131/166 123/169/165
f 87/135/168 86/133/167 123/169/165
f 88/170/169 87/135/168 123/169/165
f 89/171/170 88/170/169 123/169/165
f 90/143/171 89/171/170 123/169/165
f 91/145/172 90/143/171 123/169/165
f 92/147/173 91/145/172 123/169/165
f 93/149/174 92/147/173 123/169/165
f 94/151/175 93/149/174 123/169/165
f 95/153/176 94/151/175 123/169/165
f 96/155/177 95/153/176 123/169/165
f 97/157/178 96/155/177 123/169/165
f 98/159/179 97/157/178 123/169/165
f 99/161/180 98/159/179 123/169/165
f 100/163/181 99/161/180 123/169/165
f 101/165/182 100/163/181 123/169/165
f 102/167/183 101/165/182 123/169/165
f 83/127/164 102/167/183 123/169/165
s 6
f 103/130/184 104/129/185 124/172/186
f 104/129/185 105/132/187 124/172/186
f 105/132/187 106/134/188 124/172/186
f 106/134/188 107/136/189 124/172/186
f 107/136/189 108/173/190 124/172/186
f 108/173/190 109/174/191 124/172/186
f 109/174/191 110/175/192 124/172/186
f 110/144/192 111/146/193 124/172/186
f 111/146/193 112/148/194 124/172/186
f 112/148/194 113/150/195 124/172/186
f 113/150/195 114/152/196 124/172/186
f 114/152/196 115/154/197 124/172/186
f 115/154/197 116/156/198 124/172/186
f 116/156/198 117/158/199 124/172/186
f 117/158/199 118/160/200 124/172/186
f 118/160/200 119/162/201 124/172/186
f 119/162/201 120/164/202 124/172/186
f 120/164/202 121/166/203 124/172/186
f 121/166/203 122/168/204 124/172/186
f 122/168/204 103/130/184 124/172/186
